<svg width="26" height="28" viewBox="0 0 26 28" fill="none" xmlns="http://www.w3.org/2000/svg">
<path d="M20.2715 16.2638H13.7197V12.1953H25.1363C25.2422 12.8974 25.2985 13.6241 25.2985 14.3754C25.2985 18.1661 23.9703 21.3337 21.6938 23.5061H18.1568V20.9791C19.5318 19.9794 20.4509 18.5383 20.7631 16.8549L20.8727 16.2638H20.2715Z" fill="#F58F1E" stroke="#FAAB19"/>
<path d="M17.6277 21.3286L21.1056 24.0288C19.0829 25.7007 16.4026 26.6804 13.2197 26.6804C8.33572 26.6804 4.10399 23.905 2.01041 19.8419V17.067H5.53565C6.72202 20.1787 9.70214 22.469 13.2197 22.469C14.9247 22.469 16.4158 22.0548 17.6277 21.3286Z" fill="#F58F1E" stroke="#FAAB19"/>
<path d="M4.97699 14.0775C4.97699 14.8742 5.0958 15.65 5.30766 16.3843L1.6964 19.1849C1.00508 17.6236 0.616676 15.8941 0.616676 14.0775C0.616676 12.1528 1.05269 10.3258 1.82305 8.69307H5.38794V11.508C5.12603 12.319 4.97699 13.1851 4.97699 14.0775Z" fill="#F58F1E" stroke="#FAAB19"/>
<path d="M18.2099 7.45702C16.8142 6.28116 15.0978 5.68596 13.2197 5.68596C9.81968 5.68596 6.92178 7.82574 5.66053 10.7788L2.14751 8.05444C4.2851 4.1326 8.44006 1.47455 13.2197 1.47455C16.4229 1.47455 19.1335 2.58108 21.2596 4.40737L18.2099 7.45702Z" fill="#F58F1E" stroke="#FAAB19"/>
</svg>
